<svg xmlns="http://www.w3.org/2000/svg" viewBox="0 0 604 191"><defs><style>.cls-1,.cls-5,.cls-6,.cls-7{fill:#212121;}.cls-2{font-size:49.65px;}.cls-2,.cls-4{fill:#e1ddd2;}.cls-2,.cls-5,.cls-6,.cls-7{font-family:Helvetica-Bold, Helvetica;font-weight:700;}.cls-3{fill:none;stroke:#e1ddd2;stroke-miterlimit:10;}.cls-5,.cls-6,.cls-7{font-size:36.31px;}.cls-5{letter-spacing:-0.02em;}.cls-7{letter-spacing:-0.02em;}</style></defs><g id="Layer_2" data-name="Layer 2"><g id="Layer_1-2" data-name="Layer 1"><rect class="cls-1" width="604" height="191" rx="6.37"/><text class="cls-2" transform="translate(77 77.62)">Media Hub<tspan x="0" y="59.58">Central</tspan></text><line class="cls-3" x1="8" y1="24" x2="594" y2="24"/><circle class="cls-4" cx="428" cy="63" r="28"/><circle class="cls-4" cx="492" cy="63" r="28"/><circle class="cls-4" cx="556" cy="63" r="28"/><text class="cls-5" transform="translate(417.73 76.04)">L</text><text class="cls-6" transform="translate(476.88 75.54)">M</text><text class="cls-7" transform="translate(544.21 75.54)">P</text><path class="cls-4" d="M45.74,47.46c.48,3.81,3.33,4.1,6.29,4.32L53.5,76.89H46.64c-.26-1.81-.55-3.7-.83-5.6q-1.17-8-2.34-15.94A1.46,1.46,0,0,0,42,53.93q-1.23,0-1.44,1.5L37.45,76.37a5.48,5.48,0,0,1-.14.55H30.5L32,51.78c3-.22,5.8-.53,6.28-4.32Z"/><path class="cls-4" d="M32.47,46.18l.12-2.46h18.8l.14,2.46Z"/><path class="cls-4" d="M32.17,50.45v-3h4.65C37.14,49.72,34.44,50.62,32.17,50.45Z"/><path class="cls-4" d="M51.76,47.42l.15,2.88c-2.39.56-4.6-.69-4.84-2.88h4.69Z"/></g></g></svg>