<?xml version="1.0" encoding="utf-8"?>
<!-- Generator: Adobe Illustrator 24.2.1, SVG Export Plug-In . SVG Version: 6.00 Build 0)  -->
<svg version="1.1" id="Layer_1" xmlns="http://www.w3.org/2000/svg" xmlns:xlink="http://www.w3.org/1999/xlink" x="0px" y="0px"
	 viewBox="0 0 1920 1080" style="enable-background:new 0 0 1920 1080;" xml:space="preserve">
<style type="text/css">
	.st0{fill:#102535;}
	.st1{font-family:'Overpass-ExtraBold';}
	.st2{font-size:22.18px;}
	.st3{letter-spacing:4;}
	.st4{font-family:'Chalkboard-Bold';}
	.st5{font-size:14.9654px;}
	.st6{font-size:12.0356px;}
	.st7{letter-spacing:2;}
	.st8{fill:#B2B2B2;}
	.st9{font-size:19.4513px;}
	.st10{letter-spacing:3;}
	.st11{fill:none;stroke:#102535;stroke-width:5;stroke-linecap:round;stroke-linejoin:round;stroke-dasharray:8,20;}
	.st12{fill:none;stroke:#102535;stroke-width:5;stroke-linecap:round;stroke-linejoin:round;}
	.st13{opacity:0.27;fill:#FFFFFF;stroke:#102535;stroke-width:5;stroke-linecap:round;stroke-linejoin:round;}
	.st14{opacity:0.73;fill:#FFFFFF;stroke:#102535;stroke-width:5;stroke-linecap:round;stroke-linejoin:round;}
	.st15{fill:#FFFFFF;stroke:#102535;stroke-width:5;stroke-linecap:round;stroke-linejoin:round;}
</style>
<g>
	<path class="st0" d="M947.5,380.6c-20.8,0-37.6,16.8-37.6,37.6c0,16.2,10.4,30.5,25.7,35.7c1.9,0.3,2.6-0.8,2.6-1.8s0-3.9,0-7
		c-9.4,1.7-11.9-2.3-12.6-4.4c-0.8-2.1-2.2-3.9-3.9-5.3c-1.3-0.7-3.2-2.4,0-2.5c2.4,0.3,4.6,1.7,5.8,3.9c2.2,3.9,7,5.3,10.9,3.1
		c0,0,0,0,0,0l0,0c0.2-1.9,1-3.7,2.4-5c-8.4-0.9-17.1-4.2-17.1-18.6c-0.1-3.7,1.3-7.4,3.9-10.1c-1.1-3.2-1-6.8,0.4-10
		c0,0,3.2-1,10.3,3.9c6.1-1.7,12.6-1.7,18.8,0c7.2-4.9,10.3-3.9,10.3-3.9c1.4,3.2,1.5,6.7,0.4,10c2.5,2.7,3.9,6.4,3.9,10.1
		c0,14.4-8.8,17.6-17.1,18.6c1.8,1.8,2.7,4.4,2.5,7c0,5,0,9.1,0,10.3c0,1,0.7,2.2,2.6,1.8c19.7-6.6,30.3-28,23.6-47.7
		C977.9,390.9,963.5,380.6,947.5,380.6L947.5,380.6z"/>
</g>
<text transform="matrix(1 0 0 1 199 221)" class="st0 st1 st2 st3">MEDIA-SERVER</text>
<g>
	<path class="st0" d="M1459.8,587.1h-12.5l-0.6-2c-0.8-2.4-3.1-4-5.6-4h-9c-3.3,0-6,2.7-6,6V613c0,3.3,2.7,6,5.9,6c0,0,0,0,0,0h27.8
		c3.3,0,5.9-2.7,5.9-6v-19.9C1465.7,589.8,1463.1,587.1,1459.8,587.1C1459.8,587.1,1459.8,587.1,1459.8,587.1z M1461.8,613
		c0,1.1-0.9,2-2,2l0,0H1432c-1.1,0-2-0.9-2-2v-25.8c0-1.1,0.9-2,2-2h9.1c0.9,0,1.6,0.5,1.9,1.4l1.1,3.3c0.3,0.8,1,1.4,1.9,1.4h13.9
		c1.1,0,2,0.9,2,2c0,0,0,0,0,0L1461.8,613z"/>
	<text transform="matrix(1 0 0 1 1434.5605 607.6367)" class="st0 st4 st5">&lt;/&gt;</text>
</g>
<text transform="matrix(1 0 0 1 867 486)" class="st0 st1 st2 st3">MEDIA-HUB</text>
<text transform="matrix(1 0 0 1 1478 612)" class="st0 st1 st2 st3">INTERACTIVE HUB APP</text>
<g>
	<text transform="matrix(1 0 0 1 912.2715 593)"><tspan x="0" y="0" class="st1 st6 st7">CENTRAL</tspan><tspan x="-1.6" y="14.4" class="st1 st6 st7">WEBPAGE</tspan></text>
</g>
<path class="st0" d="M161.7,190c-12.4,0-22.4,10-22.4,22.4c0,9.6,6.2,18.2,15.3,21.2c1.1,0.2,1.5-0.5,1.5-1.1s0-2.3,0-4.2
	c-5.6,1-7.1-1.4-7.5-2.6c-0.5-1.2-1.3-2.3-2.3-3.2c-0.8-0.4-1.9-1.5,0-1.5c1.5,0.2,2.7,1,3.4,2.3c1.3,2.3,4.2,3.1,6.5,1.9
	c0,0,0,0,0,0l0,0c0.1-1.1,0.6-2.2,1.4-3c-5-0.6-10.2-2.5-10.2-11c0-2.2,0.8-4.4,2.3-6c-0.7-1.9-0.6-4.1,0.2-5.9c0,0,1.9-0.6,6.2,2.3
	c3.7-1,7.5-1,11.2,0c4.3-2.9,6.2-2.3,6.2-2.3c0.8,1.9,0.9,4,0.2,5.9c1.5,1.6,2.3,3.8,2.3,6c0,8.6-5.2,10.5-10.2,11
	c1.1,1.1,1.6,2.6,1.5,4.1c0,3,0,5.4,0,6.2c0,0.6,0.4,1.3,1.5,1.1c11.7-3.9,18-16.6,14.1-28.3C179.8,196.1,171.2,190,161.7,190
	L161.7,190z"/>
<text transform="matrix(1 0 0 1 199 269.6797)"><tspan x="0" y="0" class="st8 st1 st9 st10">- SERVER-SIDE ACTIONS</tspan><tspan x="0" y="40" class="st8 st1 st9 st10">- GLITCH/NODEJS</tspan></text>
<text transform="matrix(1 0 0 1 199 427)" class="st0 st1 st2 st3">MEDIA-THEME</text>
<path class="st0" d="M161.7,396c-12.4,0-22.4,10-22.4,22.4c0,9.6,6.2,18.2,15.3,21.2c1.1,0.2,1.5-0.5,1.5-1.1c0-0.6,0-2.3,0-4.2
	c-5.6,1-7.1-1.4-7.5-2.6c-0.5-1.2-1.3-2.3-2.3-3.2c-0.8-0.4-1.9-1.5,0-1.5c1.5,0.2,2.7,1,3.4,2.3c1.3,2.3,4.2,3.1,6.5,1.9
	c0,0,0,0,0,0l0,0c0.1-1.1,0.6-2.2,1.4-3c-5-0.6-10.2-2.5-10.2-11c0-2.2,0.8-4.4,2.3-6c-0.7-1.9-0.6-4.1,0.2-5.9c0,0,1.9-0.6,6.2,2.3
	c3.7-1,7.5-1,11.2,0c4.3-2.9,6.2-2.3,6.2-2.3c0.8,1.9,0.9,4,0.2,5.9c1.5,1.6,2.3,3.8,2.3,6c0,8.6-5.2,10.5-10.2,11
	c1.1,1.1,1.6,2.6,1.5,4.1c0,3,0,5.4,0,6.2c0,0.6,0.4,1.3,1.5,1.1c11.7-3.9,18-16.6,14.1-28.3C179.8,402.1,171.2,396,161.7,396
	L161.7,396z"/>
<line class="st11" x1="441" y1="418.5" x2="868.5" y2="418.5"/>
<text transform="matrix(1 0 0 1 736.5 441.877)" class="st1 st6 st7">RELATIONS</text>
<text transform="matrix(1 0 0 1 1071.5 441.877)" class="st1 st6 st7">CONTAINS</text>
<text transform="matrix(1 0 0 1 199 475.6797)"><tspan x="0" y="0" class="st8 st1 st9 st10">- GH-PAGES DRIVEN</tspan><tspan x="0" y="40" class="st8 st1 st9 st10">- FAUX-CDN DELIVERY OF</tspan><tspan x="0" y="80" class="st8 st1 st9 st10">  CSS THEMES</tspan></text>
<text transform="matrix(1 0 0 1 149 769.6797)"><tspan x="0" y="0" class="st8 st1 st9 st10">- GH-PAGES DRIVEN</tspan><tspan x="0" y="40" class="st8 st1 st9 st10">- REPO FOR EACH COURSE GROUP</tspan></text>
<text transform="matrix(1 0 0 1 1484 660.6797)"><tspan x="0" y="0" class="st8 st1 st9 st10">- HUB FOR INTERACTIVES</tspan><tspan x="0" y="40" class="st8 st1 st9 st10">  MADE FOR COURSES OR LEI</tspan><tspan x="0" y="80" class="st8 st1 st9 st10">- INSTRUCTIONS FOR HOSTING </tspan><tspan x="0" y="120" class="st8 st1 st9 st10">- REPLICATE LTI-ADX</tspan></text>
<g>
	<path class="st0" d="M1459.8,276.1h-12.5l-0.6-2c-0.8-2.4-3.1-4-5.6-4h-9c-3.3,0-6,2.7-6,6V302c0,3.3,2.7,6,5.9,6c0,0,0,0,0,0h27.8
		c3.3,0,5.9-2.7,5.9-6v-19.9C1465.7,278.8,1463.1,276.1,1459.8,276.1C1459.8,276.1,1459.8,276.1,1459.8,276.1z M1461.8,302
		c0,1.1-0.9,2-2,2l0,0H1432c-1.1,0-2-0.9-2-2v-25.8c0-1.1,0.9-2,2-2h9.1c0.9,0,1.6,0.5,1.9,1.4l1.1,3.3c0.3,0.8,1,1.4,1.9,1.4h13.9
		c1.1,0,2,0.9,2,2c0,0,0,0,0,0L1461.8,302z"/>
	<text transform="matrix(1 0 0 1 1434.5605 296.6367)" class="st0 st4 st5">&lt;/&gt;</text>
</g>
<text transform="matrix(1 0 0 1 1478 301)" class="st0 st1 st2 st3">MEDIA HUB APP</text>
<text transform="matrix(1 0 0 1 1484 349.6797)"><tspan x="0" y="0" class="st8 st1 st9 st10">- IMAGE REPOSITORY</tspan><tspan x="0" y="40" class="st8 st1 st9 st10">- METADATA</tspan><tspan x="0" y="80" class="st8 st1 st9 st10">- OER DEVELOPMENT</tspan></text>
<polyline class="st12" points="1019,422.5 1373,422.5 1373,289.5 1408.5,289.5 "/>
<path class="st13" d="M371.8,712.5H172.7c-8.4,0-15.2-6.8-15.2-15.2v-49.6c0-8.4,6.8-15.2,15.2-15.2h199.1c8.4,0,15.2,6.8,15.2,15.2
	v49.6C387,705.7,380.2,712.5,371.8,712.5z"/>
<path class="st14" d="M362.1,698.5H163c-8.4,0-15.2-6.8-15.2-15.2v-49.6c0-8.4,6.8-15.2,15.2-15.2h199.1c8.4,0,15.2,6.8,15.2,15.2
	v49.6C377.3,691.7,370.5,698.5,362.1,698.5z"/>
<path class="st15" d="M351.8,681.5H152.7c-8.4,0-15.2-6.8-15.2-15.2v-49.6c0-8.4,6.8-15.2,15.2-15.2h199.1c8.4,0,15.2,6.8,15.2,15.2
	v49.6C367,674.7,360.1,681.5,351.8,681.5z"/>
<text transform="matrix(1 0 0 1 216 649)" class="st0 st1 st2 st3">COURSE</text>
<path class="st0" d="M180.7,618c-12.4,0-22.4,10-22.4,22.4c0,9.6,6.2,18.2,15.3,21.2c1.1,0.2,1.5-0.5,1.5-1.1c0-0.6,0-2.3,0-4.2
	c-5.6,1-7.1-1.4-7.5-2.6c-0.5-1.2-1.3-2.3-2.3-3.2c-0.8-0.4-1.9-1.5,0-1.5c1.5,0.2,2.7,1,3.4,2.3c1.3,2.3,4.2,3.1,6.5,1.9
	c0,0,0,0,0,0l0,0c0.1-1.1,0.6-2.2,1.4-3c-5-0.6-10.2-2.5-10.2-11c0-2.2,0.8-4.4,2.3-6c-0.7-1.9-0.6-4.1,0.2-5.9c0,0,1.9-0.6,6.2,2.3
	c3.7-1,7.5-1,11.2,0c4.3-2.9,6.2-2.3,6.2-2.3c0.8,1.9,0.9,4,0.2,5.9c1.5,1.6,2.3,3.8,2.3,6c0,8.6-5.2,10.5-10.2,11
	c1.1,1.1,1.6,2.6,1.5,4.1c0,3,0,5.4,0,6.2c0,0.6,0.4,1.3,1.5,1.1c11.7-3.9,18-16.6,14.1-28.3C198.8,624.1,190.2,618,180.7,618
	L180.7,618z"/>
<polyline class="st11" points="571,414 571,672 428,672 "/>
<polyline class="st11" points="571,422 571,212 428.3,212 "/>
<polyline class="st12" points="1373.5,422.5 1373.5,600.5 1408.5,600.5 "/>
<path class="st0" d="M943.9,543.4c-0.9,0-1.6,0.7-1.6,1.6s0.7,1.6,1.6,1.6s1.6-0.7,1.6-1.6c0,0,0,0,0,0
	C945.5,544.1,944.8,543.4,943.9,543.4L943.9,543.4z M937.5,543.4c-0.9,0-1.6,0.7-1.6,1.6c0,0.9,0.7,1.6,1.6,1.6
	c0.9,0,1.6-0.7,1.6-1.6c0,0,0,0,0,0C939.1,544.1,938.4,543.4,937.5,543.4L937.5,543.4L937.5,543.4z M950.3,543.4
	c-0.9,0-1.6,0.7-1.6,1.6s0.7,1.6,1.6,1.6c0.9,0,1.6-0.7,1.6-1.6c0,0,0,0,0,0C951.9,544.1,951.1,543.4,950.3,543.4
	C950.3,543.4,950.3,543.4,950.3,543.4L950.3,543.4z M959.8,537h-25.6c-2.6,0-4.8,2.1-4.8,4.8v25.6c0,2.6,2.1,4.8,4.8,4.8h25.6
	c2.6,0,4.8-2.1,4.8-4.8v-25.6C964.6,539.1,962.5,537,959.8,537L959.8,537z M961.4,567.3c0,0.9-0.7,1.6-1.6,1.6l0,0h-25.6
	c-0.9,0-1.6-0.7-1.6-1.6c0,0,0,0,0,0v-14.4h28.7L961.4,567.3z M961.4,549.7h-28.7v-8c0-0.9,0.7-1.6,1.6-1.6c0,0,0,0,0,0h25.6
	c0.9,0,1.6,0.7,1.6,1.6l0,0L961.4,549.7z"/>
<line class="st12" x1="947" y1="502" x2="947" y2="520"/>
</svg>
